<svg viewBox="0 0 512 512" xmlns="http://www.w3.org/2000/svg" xmlns:xlink="http://www.w3.org/1999/xlink" id="Layer_1" overflow="hidden"><g><g><g><path d="M486.4 102.4 375.467 102.4 375.467 25.6C375.467 20.898 379.298 17.067 384 17.067L418.133 17.067C422.835 17.067 426.666 20.898 426.666 25.6L426.666 34.133 418.133 34.133C413.423 34.133 409.6 37.956 409.6 42.666 409.6 47.376 413.423 51.199 418.133 51.199L426.666 51.199 426.666 68.266 418.133 68.266C413.423 68.266 409.6 72.089 409.6 76.799 409.6 81.509 413.423 85.332 418.133 85.332L435.2 85.332C439.91 85.332 443.733 81.509 443.733 76.799L443.733 25.6C443.733 11.486 432.247 0 418.133 0L384 0C369.886 0 358.4 11.486 358.4 25.6L358.4 107.401 346.334 119.467 165.666 119.467 153.6 107.401 153.6 25.6C153.6 11.486 142.114 0 128 0L93.867 0C79.753 0 68.267 11.486 68.267 25.6L68.267 76.8C68.267 81.51 72.09 85.333 76.8 85.333 81.51 85.333 85.333 81.51 85.333 76.8L85.333 25.6C85.333 20.898 89.164 17.067 93.866 17.067L128 17.067C132.702 17.067 136.533 20.898 136.533 25.6L136.533 34.133 128 34.133C123.29 34.133 119.467 37.956 119.467 42.666 119.467 47.376 123.29 51.199 128 51.199L136.533 51.199 136.533 68.266 128 68.266C123.29 68.266 119.467 72.089 119.467 76.799 119.467 81.509 123.29 85.332 128 85.332L136.533 85.332 136.533 102.4 25.6 102.4C11.486 102.4 0 113.886 0 128L0 162.133C0 173.243 7.151 182.622 17.067 186.154L17.067 469.333C17.067 492.859 36.207 512 59.734 512L452.267 512C475.793 512 494.934 492.86 494.934 469.333L494.934 213.333C494.934 208.623 491.111 204.8 486.401 204.8 481.691 204.8 477.868 208.623 477.868 213.333L477.868 469.333C477.868 483.447 466.382 494.933 452.268 494.933L59.733 494.933C45.619 494.933 34.133 483.447 34.133 469.333L34.133 179.2C34.133 174.49 30.31 170.667 25.6 170.667 20.898 170.667 17.067 166.836 17.067 162.134L17.067 128C17.067 123.298 20.898 119.467 25.6 119.467L141.534 119.467 156.1 134.033C157.696 135.629 159.872 136.533 162.133 136.533L349.866 136.533C352.127 136.533 354.295 135.628 355.899 134.033L370.465 119.467 486.4 119.467C491.102 119.467 494.933 123.298 494.933 128L494.933 162.133C494.933 166.835 491.102 170.666 486.4 170.666L59.733 170.666C55.023 170.666 51.2 174.489 51.2 179.199 51.2 183.909 55.023 187.732 59.733 187.732L486.4 187.732C500.514 187.732 512 176.246 512 162.132L512 128C512 113.886 500.514 102.4 486.4 102.4Z"/><path d="M366.933 341.333C362.223 341.333 358.4 345.156 358.4 349.866 358.4 354.576 362.223 358.399 366.933 358.399L435.2 358.399C439.91 358.399 443.733 354.576 443.733 349.866 443.733 345.156 439.91 341.333 435.2 341.333L366.933 341.333Z"/><path d="M226.534 442.812C227.763 443.435 229.085 443.734 230.391 443.734 232.866 443.734 235.289 442.659 236.953 440.662L322.286 338.262C324.411 335.719 324.863 332.178 323.464 329.183 322.056 326.188 319.044 324.268 315.733 324.268L274.944 324.268 289.963 249.141C290.757 245.199 288.683 241.239 284.997 239.643 281.311 238.039 276.993 239.242 274.655 242.51L189.322 361.977C187.47 364.58 187.214 367.993 188.682 370.843 190.141 373.676 193.068 375.468 196.268 375.468L236.537 375.468 222.124 433.128C221.158 436.992 222.985 441.011 226.534 442.812ZM212.847 358.4 265.429 284.783 256.162 331.128C255.659 333.637 256.316 336.231 257.937 338.211 259.558 340.191 261.973 341.334 264.533 341.334L297.514 341.334 247.722 401.076 255.743 369.008C256.383 366.457 255.803 363.751 254.19 361.686 252.577 359.612 250.094 358.401 247.466 358.401L212.847 358.401Z"/><path d="M110.933 392.533C115.643 392.533 119.466 388.71 119.466 384L119.466 358.4 145.066 358.4C149.776 358.4 153.599 354.577 153.599 349.867 153.599 345.157 149.776 341.334 145.066 341.334L119.466 341.334 119.466 315.734C119.466 311.024 115.643 307.201 110.933 307.201 106.223 307.201 102.4 311.024 102.4 315.734L102.4 341.334 76.8 341.334C72.09 341.334 68.267 345.157 68.267 349.867 68.267 354.577 72.09 358.4 76.8 358.4L102.4 358.4 102.4 384C102.4 388.71 106.223 392.533 110.933 392.533Z"/></g></g></g><g></g><g></g><g></g><g></g><g></g><g></g><g></g><g></g><g></g><g></g><g></g><g></g><g></g><g></g><g></g></svg>